<svg width="174.4800048828125px" height="171.239990234375px" xmlns="http://www.w3.org/2000/svg" viewBox="162.75999755859374 -10.6199951171875 174.4800048828125 171.239990234375" style="background: none; --darkreader-inline-bgcolor: rgba(0, 0, 0, 0); --darkreader-inline-bgimage: none;" data-darkreader-inline-bgcolor="" data-darkreader-inline-bgimage="" preserveAspectRatio="xMidYMid"><defs><filter id="editing-hole" x="-100%" y="-100%" width="300%" height="300%"><feFlood flood-color="#000" result="black"></feFlood><feMorphology operator="dilate" radius="2" in="SourceGraphic" result="erode"></feMorphology><feGaussianBlur in="erode" stdDeviation="4" result="blur"></feGaussianBlur><feOffset in="blur" dx="2" dy="2" result="offset"></feOffset><feComposite operator="atop" in="offset" in2="black" result="merge"></feComposite><feComposite operator="in" in="merge" in2="SourceGraphic" result="inner-shadow"></feComposite></filter></defs><g filter="url(#editing-hole)"><g transform="translate(192.8149905204773, 103.55499839782715)"><path d="M44.06-23.67L44.06-56.17L51.41-56.17L51.41-23.71L51.41-23.71Q51.41-11.45 45.90-5.25L45.90-5.25L45.90-5.25Q40.39 0.94 28.98 0.94L28.98 0.94L28.98 0.94Q6.64 0.94 6.64-23.71L6.64-23.71L6.64-56.17L13.98-56.17L13.98-23.67L13.98-23.67Q13.98-19.38 14.73-16.11L14.73-16.11L14.73-16.11Q15.47-12.85 17.15-10.33L17.15-10.33L17.15-10.33Q18.83-7.81 21.80-6.50L21.80-6.50L21.80-6.50Q24.77-5.20 28.98-5.20L28.98-5.20L28.98-5.20Q32.42-5.20 35.06-6.07L35.06-6.07L35.06-6.07Q37.70-6.95 39.38-8.52L39.38-8.52L39.38-8.52Q41.05-10.08 42.13-12.44L42.13-12.44L42.13-12.44Q43.20-14.80 43.63-17.52L43.63-17.52L43.63-17.52Q44.06-20.23 44.06-23.67L44.06-23.67ZM77.03 0L65.16 0L65.16-56.17L77.03-56.17L77.03-56.17Q81.84-56.17 85.96-55.68L85.96-55.68L85.96-55.68Q90.08-55.20 93.52-53.98L93.52-53.98L93.52-53.98Q96.95-52.77 99.55-50.76L99.55-50.76L99.55-50.76Q102.15-48.75 104.02-45.63L104.02-45.63L104.02-45.63Q105.86-42.50 106.80-38.20L106.80-38.20L106.80-38.20Q107.73-33.91 107.73-28.09L107.73-28.09L107.73-28.09Q107.73-22.27 106.80-17.97L106.80-17.97L106.80-17.97Q105.86-13.67 104.02-10.55L104.02-10.55L104.02-10.55Q102.15-7.42 99.55-5.41L99.55-5.41L99.55-5.41Q96.95-3.40 93.52-2.19L93.52-2.19L93.52-2.19Q90.08-0.98 85.96-0.49L85.96-0.49L85.96-0.49Q81.84 0 77.03 0L77.03 0ZM72.50-6.02L78.24-6.02L78.24-6.02Q84.22-6.02 88.38-7.21L88.38-7.21L88.38-7.21Q92.54-8.40 95.20-11.09L95.20-11.09L95.20-11.09Q97.81-13.79 99.00-17.95L99.00-17.95L99.00-17.95Q100.20-22.11 100.20-28.09L100.20-28.09L100.20-28.09Q100.20-34.06 99.00-38.22L99.00-38.22L99.00-38.22Q97.81-42.38 95.20-45.08L95.20-45.08L95.20-45.08Q92.54-47.77 88.38-48.96L88.38-48.96L88.38-48.96Q84.22-50.16 78.24-50.16L78.24-50.16L72.50-50.16L72.50-6.02Z" fill="#ccc" style="--darkreader-inline-fill: #37393a;" data-darkreader-inline-fill=""></path></g></g><style>text {
  font-size: 64px;
  font-family: Arial Black;
  dominant-baseline: central;
  text-anchor: middle;
}</style><style class="darkreader darkreader--sync" media="screen"></style></svg>